<?xml version="1.0" encoding="utf-8"?>
<!-- Generator: Adobe Illustrator 27.1.0, SVG Export Plug-In . SVG Version: 6.00 Build 0)  -->
<svg version="1.1" id="圖層_1" xmlns="http://www.w3.org/2000/svg" xmlns:xlink="http://www.w3.org/1999/xlink" x="0px" y="0px"
	 viewBox="0 0 512 512" style="enable-background:new 0 0 512 512;" xml:space="preserve">
<style type="text/css">
	.st0{fill:#911A1D;}
	.st1{fill-rule:evenodd;clip-rule:evenodd;fill:#FFFFFF;}
</style>
<circle class="st0" cx="256" cy="256" r="251.1"/>
<g id="Icon">
	<path class="st1" d="M369.7,198l-51.3-85.6c-3.6-6.1-11.5-8-17.6-4.4s-8,11.5-4.4,17.6l51.3,85.6c3.6,6.1,11.5,8,17.6,4.4
		C371.4,212,373.3,204.1,369.7,198L369.7,198z"/>
	<path class="st1" d="M164.3,211.3l51.3-85.6c3.6-6.1,1.7-14-4.4-17.6c-6.1-3.6-14-1.7-17.6,4.4L142.3,198c-3.6,6.1-1.7,14,4.4,17.6
		S160.7,217.3,164.3,211.3L164.3,211.3z"/>
	<path class="st1" d="M422.7,206.7c0.6-3.7-0.4-7.5-2.9-10.4c-2.4-2.9-6-4.5-9.8-4.5H102c-3.8,0-7.3,1.7-9.8,4.5
		c-2.4,2.9-3.5,6.7-2.9,10.4c0,0,17.5,106.9,26.1,159.6c3.7,22.8,23.4,39.5,46.5,39.5h188.3c23.1,0,42.7-16.7,46.5-39.5L422.7,206.7
		z M243.2,264.6V333c0,7.1,5.8,12.8,12.8,12.8c7.1,0,12.8-5.8,12.8-12.8v-68.5c0-7.1-5.8-12.8-12.8-12.8
		C248.9,251.7,243.2,257.5,243.2,264.6z M311.6,264.6V333c0,7.1,5.8,12.8,12.8,12.8s12.8-5.8,12.8-12.8v-68.5
		c0-7.1-5.8-12.8-12.8-12.8S311.6,257.5,311.6,264.6z M174.7,264.6V333c0,7.1,5.8,12.8,12.8,12.8s12.8-5.8,12.8-12.8v-68.5
		c0-7.1-5.8-12.8-12.8-12.8S174.7,257.5,174.7,264.6z"/>
	<path class="st1" d="M427.2,191.8H84.8c-7.1,0-12.8,5.8-12.8,12.8c0,7.1,5.8,12.8,12.8,12.8h342.3c7.1,0,12.8-5.8,12.8-12.8
		C440,197.6,434.2,191.8,427.2,191.8z"/>
</g>
</svg>
