<?xml version="1.0" encoding="utf-8"?>
<!-- Generator: Adobe Illustrator 27.1.0, SVG Export Plug-In . SVG Version: 6.00 Build 0)  -->
<svg version="1.1" id="圖層_1" xmlns:svgjs="http://svgjs.com/svgjs"
	 xmlns="http://www.w3.org/2000/svg" xmlns:xlink="http://www.w3.org/1999/xlink" x="0px" y="0px" viewBox="0 0 512 512"
	 style="enable-background:new 0 0 512 512;" xml:space="preserve">
<style type="text/css">
	.st0{fill:#911A1D;}
	.st1{fill:#FFFFFF;}
</style>
<path class="st0" d="M490,512H22c-12.2,0-22-9.8-22-22V22C0,9.8,9.8,0,22,0h468c12.2,0,22,9.8,22,22v468
	C512,502.2,502.2,512,490,512z"/>
<path class="st1" d="M347.1,460.1H164.9c-62.4,0-113-50.6-113-113V164.9c0-62.4,50.6-113,113-113h182.2c62.4,0,113,50.6,113,113
	v182.2C460.1,409.5,409.5,460.1,347.1,460.1z"/>
<g>
	<g>
		<path class="st0" d="M256,0C114.6,0,0,114.6,0,256s114.6,256,256,256c141.4,0,256-114.6,256-256S397.4,0,256,0z M256,76.6
			c46.8,0,84.7,37.9,84.7,84.7c0,46.8-37.9,84.7-84.7,84.7c-46.8,0-84.7-37.9-84.7-84.7C171.3,114.5,209.2,76.6,256,76.6z
			 M255.9,445.1c-46.7,0-89.4-17-122.3-45.1c-8-6.8-12.7-16.9-12.7-27.4c0-47.4,38.4-85.4,85.8-85.4h98.5c47.4,0,85.7,38,85.7,85.4
			c0,10.5-4.6,20.6-12.7,27.4C345.4,428.1,302.6,445.1,255.9,445.1z"/>
	</g>
</g>
</svg>
